<?xml version="1.0" encoding="UTF-8"?>
<!DOCTYPE svg PUBLIC "-//W3C//DTD SVG 1.1//EN" "http://www.w3.org/Graphics/SVG/1.1/DTD/svg11.dtd">
<!-- Creator: CorelDRAW -->
<svg xmlns="http://www.w3.org/2000/svg" xml:space="preserve" width="677.533mm" height="451.756mm" version="1.1" style="shape-rendering:geometricPrecision; text-rendering:geometricPrecision; image-rendering:optimizeQuality; fill-rule:evenodd; clip-rule:evenodd"
viewBox="0 0 21854 14571.51"
 xmlns:xlink="http://www.w3.org/1999/xlink"
 xmlns:xodm="http://www.corel.com/coreldraw/odm/2003">
 <defs>
  <style type="text/css">
   <![CDATA[
    .str0 {stroke:#332C2B;stroke-width:6.45;stroke-miterlimit:22.9256}
    .fil0 {fill:black}
   ]]>
  </style>
 </defs>
 <g id="Layer_x0020_1">
  <metadata id="CorelCorpID_0Corel-Layer"/>
  <path class="fil0 str0" d="M3.23 3.23l21847.55 0 0 14565.06 -7379.47 0c-243.2,-355.55 -449.33,-701.64 -599.1,-1032.77 -132.83,-293.69 -337.72,-533.49 -504.5,-773.29l51.54 -199.71 -228.85 -466.9c17.94,-245.71 -7.37,-491.42 -76.53,-737.13l19.42 -200.73c-23.26,-153.02 -76.34,-310.3 -154.47,-471.16l456.86 9.14c53.62,-347.82 73.73,-712.39 54.82,-1096.46 62.27,-338.67 78.37,-683.11 54.82,-1032.5l-23.4 -858.85c112.74,108.41 218.87,225.07 297.51,376.1 190.45,77.09 331.74,51.48 437.12,-75.61l522.02 440.48c175.6,129.07 361.25,210.42 566.96,196.47l190.86 -22.45c71.54,-11.77 119.74,-48.82 151.18,-104.04 45.65,-80.2 35.83,-178.63 50.91,-333.82 24.57,-827.29 -73.3,-1715.79 -338.76,-2688.11 102.01,-524.23 76.35,-1048.45 -91.84,-1572.67 -181.58,-382.51 -447.77,-612.07 -835.34,-622.23l-183.68 -83.14c-213.05,-115.22 -520.83,6.62 -687.94,155.38 -153.9,-105.07 -250.06,-231.79 -323.44,-367.06l-479.07 -1082.14c-347.22,-962.06 -1129.13,-1512.6 -2101.71,-1023.11 -219.51,126.61 -325.61,323 -279.05,613.34 -98.62,105.34 -166.72,210.42 -193.92,339.57 -43.16,-18.07 -33.87,-83.61 -121.32,-58.98 -89.98,25.35 -155.01,349.12 -157.91,429.76 43.19,174.88 -131.76,490.34 158.59,540.26 -59.75,306.91 -79.53,581.85 -52.38,819.24 -43,224.08 -109.53,438.08 -197.77,642.77 -147.67,116.43 -315.59,220.7 -497.74,316.44l-90.67 -17.37c-372.18,259.79 -821.97,341.13 -1174.03,592.72 -353.3,372.46 -402.74,1443.79 -604.11,2165.69l-162.96 791.22 396.46 148.67 198.23 168.5 -188.32 1020.89 -411.79 3251.6c-1.16,614.51 -247.83,991.32 -307.45,1492.82 22.25,140.32 63.27,272.6 94.91,408.9l0.01 0.29 -7102.23 0 0 -14565.06zm8556.44 14565.06l-714.97 0 -105.65 -203.92 -23.68 -222.73 124.77 -511.98c77.86,-206.92 68.08,-413.84 18.94,-620.77l0 -233.35 619.7 -2020.91 192.6 332.24c-293.13,1373.18 -492.66,1992.28 -113.5,3475.45l1.78 5.96z"/>
 </g>
</svg>
