<?xml version="1.0" encoding="UTF-8"?>
<!DOCTYPE svg PUBLIC "-//W3C//DTD SVG 1.1//EN" "http://www.w3.org/Graphics/SVG/1.1/DTD/svg11.dtd">
<!-- Creator: CorelDRAW -->
<svg xmlns="http://www.w3.org/2000/svg" xml:space="preserve" width="677.333mm" height="451.556mm" version="1.1" style="shape-rendering:geometricPrecision; text-rendering:geometricPrecision; image-rendering:optimizeQuality; fill-rule:evenodd; clip-rule:evenodd"
viewBox="0 0 21839.02 14559.37"
 xmlns:xlink="http://www.w3.org/1999/xlink"
 xmlns:xodm="http://www.corel.com/coreldraw/odm/2003">
 <defs>
  <style type="text/css">
   <![CDATA[
    .fil0 {fill:#D7AAA5}
   ]]>
  </style>
 </defs>
 <g id="Layer_x0020_1">
  <metadata id="CorelCorpID_0Corel-Layer"/>
  <path class="fil0" d="M-0 0l21839.02 0 0 14559.37 -7376.59 0c-243.11,-355.41 -449.16,-701.37 -598.87,-1032.37 -132.78,-293.58 -337.59,-533.28 -504.31,-772.99l51.52 -199.64 -228.76 -466.72c17.94,-245.62 -7.37,-491.23 -76.5,-736.84l19.42 -200.65c-23.25,-152.96 -76.31,-310.17 -154.41,-470.98l456.68 9.13c53.6,-347.68 73.7,-712.11 54.8,-1096.03 62.24,-338.54 78.34,-682.84 54.8,-1032.1l-23.4 -858.52c112.69,108.37 218.78,224.99 297.4,375.95 190.38,77.06 331.61,51.46 436.95,-75.58l521.82 440.31c175.53,129.02 361.11,210.34 566.74,196.4l190.78 -22.44c71.51,-11.77 119.7,-48.8 151.12,-104 45.63,-80.16 35.82,-178.56 50.89,-333.69 24.56,-826.97 -73.27,-1715.12 -338.63,-2687.06 101.97,-524.02 76.32,-1048.04 -91.81,-1572.06 -181.51,-382.36 -447.59,-611.83 -835.01,-621.99l-183.61 -83.11c-212.97,-115.18 -520.63,6.61 -687.67,155.32 -153.84,-105.03 -249.96,-231.7 -323.31,-366.91l-478.89 -1081.72c-347.09,-961.69 -1128.69,-1512.01 -2100.89,-1022.71 -219.43,126.56 -325.48,322.87 -278.94,613.1 -98.58,105.29 -166.66,210.34 -193.84,339.43 -43.14,-18.06 -33.85,-83.58 -121.27,-58.95 -89.94,25.34 -154.95,348.98 -157.85,429.59 43.18,174.81 -131.71,490.15 158.53,540.05 -59.73,306.79 -79.5,581.62 -52.36,818.92 -42.98,223.99 -109.49,437.91 -197.7,642.52 -147.61,116.38 -315.46,220.62 -497.54,316.32l-90.63 -17.36c-372.04,259.69 -821.65,341 -1173.58,592.48 -353.16,372.32 -402.59,1443.23 -603.88,2164.84l-162.89 790.91 396.31 148.61 198.15 168.43 -188.25 1020.49 -411.63 3250.34c-1.16,614.27 -247.73,990.93 -307.33,1492.24 22.24,140.27 63.25,272.49 94.87,408.74l0.01 0.29 -7099.46 0 0 -14559.37zm8553.1 14559.37l-714.69 0 -105.61 -203.84 -23.67 -222.64 124.72 -511.78c77.83,-206.84 68.06,-413.68 18.93,-620.52l0 -233.26 619.46 -2020.12 192.53 332.11c-293.01,1372.64 -492.47,1991.5 -113.45,3474.1l1.78 5.96z"/>
 </g>
</svg>
