<?xml version="1.0" encoding="UTF-8"?>
<!DOCTYPE svg PUBLIC "-//W3C//DTD SVG 1.1//EN" "http://www.w3.org/Graphics/SVG/1.1/DTD/svg11.dtd">
<!-- Creator: CorelDRAW -->
<svg xmlns="http://www.w3.org/2000/svg" xml:space="preserve" width="677.533mm" height="451.756mm" version="1.1" style="shape-rendering:geometricPrecision; text-rendering:geometricPrecision; image-rendering:optimizeQuality; fill-rule:evenodd; clip-rule:evenodd"
viewBox="0 0 46982.75 31326.5"
 xmlns:xlink="http://www.w3.org/1999/xlink"
 xmlns:xodm="http://www.corel.com/coreldraw/odm/2003">
 <defs>
  <style type="text/css">
   <![CDATA[
    .str0 {stroke:#332C2B;stroke-width:13.87;stroke-miterlimit:22.9256}
    .fil0 {fill:#332C2B}
   ]]>
  </style>
 </defs>
 <g id="Layer_x0020_1">
  <metadata id="CorelCorpID_0Corel-Layer"/>
  <path class="fil0 str0" d="M6.93 6.93l46968.88 0 0 31312.63 -15864.74 0c-522.85,-764.38 -965.99,-1508.42 -1287.97,-2220.3 -285.57,-631.4 -726.04,-1146.93 -1084.61,-1662.46l110.8 -429.36 -492 -1003.77c38.58,-528.25 -15.85,-1056.48 -164.53,-1584.72l41.76 -431.53c-50.01,-328.97 -164.12,-667.09 -332.09,-1012.92l982.18 19.65c115.27,-747.76 158.5,-1531.52 117.86,-2357.23 133.87,-728.08 168.48,-1468.58 117.86,-2219.72l-50.32 -1846.4c242.36,233.06 470.53,483.87 639.61,808.56 409.45,165.72 713.18,110.68 939.73,-162.55l1122.27 946.97c377.51,277.48 776.63,452.36 1218.88,422.39l410.31 -48.27c153.79,-25.31 257.43,-104.96 325.01,-223.66 98.14,-172.41 77.03,-384.02 109.44,-717.65 52.83,-1778.55 -157.59,-3688.69 -728.28,-5779.01 219.31,-1127 164.15,-2254.01 -197.45,-3381.01 -390.37,-822.34 -962.63,-1315.86 -1795.85,-1337.7l-394.89 -178.75c-458.02,-247.71 -1119.71,14.22 -1478.96,334.05 -330.85,-225.88 -537.6,-498.31 -695.35,-789.11l-1029.94 -2326.44c-746.48,-2068.28 -2427.45,-3251.86 -4518.35,-2199.53 -471.92,272.18 -700.01,694.4 -599.92,1318.59 -212.02,226.46 -358.43,452.37 -416.9,730.02 -92.79,-38.85 -72.81,-179.75 -260.81,-126.79 -193.44,54.49 -333.25,750.56 -339.48,923.91 92.86,375.96 -283.26,1054.15 340.95,1161.47 -128.45,659.81 -170.98,1250.88 -112.61,1761.23 -92.44,481.74 -235.47,941.8 -425.18,1381.86 -317.47,250.3 -678.46,474.48 -1070.06,680.3l-194.93 -37.34c-800.14,558.5 -1767.11,733.39 -2523.99,1274.25 -759.54,800.73 -865.83,3103.93 -1298.75,4655.9l-350.33 1700.99 852.33 319.62 426.17 362.25 -404.86 2194.75 -885.28 6990.45c-2.5,1321.1 -532.8,2131.18 -660.96,3209.33 47.83,301.67 136.02,586.05 204.04,879.07l0.01 0.62 -15268.71 0 0 -31312.63zm18395.02 31312.63l-1537.08 0 -227.13 -438.41 -50.91 -478.83 268.24 -1100.68c167.4,-444.85 146.37,-889.7 40.72,-1334.55l0 -501.66 1332.27 -4344.64 414.07 714.26c-630.18,2952.13 -1059.14,4283.1 -244,7471.69l3.82 12.82z"/>
 </g>
</svg>
