<?xml version="1.0" encoding="UTF-8"?>
<!DOCTYPE svg PUBLIC "-//W3C//DTD SVG 1.1//EN" "http://www.w3.org/Graphics/SVG/1.1/DTD/svg11.dtd">
<!-- Creator: CorelDRAW -->
<svg xmlns="http://www.w3.org/2000/svg" xml:space="preserve" width="210mm" height="297mm" version="1.1" style="shape-rendering:geometricPrecision; text-rendering:geometricPrecision; image-rendering:optimizeQuality; fill-rule:evenodd; clip-rule:evenodd"
viewBox="0 0 21000 29700"
 xmlns:xlink="http://www.w3.org/1999/xlink"
 xmlns:xodm="http://www.corel.com/coreldraw/odm/2003">
 <defs>
  <style type="text/css">
   <![CDATA[
    .str0 {stroke:#332C2B;stroke-width:20;stroke-miterlimit:22.9256}
    .fil0 {fill:black}
   ]]>
  </style>
 </defs>
 <g id="Layer_x0020_1">
  <metadata id="CorelCorpID_0Corel-Layer"/>
  <path class="fil0 str0" d="M115536.74 15885.88l67733.3 0 0 45155.6 -22878.36 0c-754,-1102.31 -1393.05,-2175.28 -1857.37,-3201.87 -411.82,-910.53 -1047.02,-1653.97 -1564.1,-2397.42l159.78 -619.17 -709.51 -1447.53c55.63,-761.78 -22.85,-1523.54 -237.27,-2285.3l60.22 -622.31c-72.12,-474.41 -236.68,-962 -478.9,-1460.72l1416.39 28.33c166.23,-1078.33 228.57,-2208.59 169.97,-3399.33 193.05,-1049.96 242.96,-2117.82 169.96,-3201.03l-72.56 -2662.67c349.51,336.1 678.55,697.79 922.37,1166.01 590.46,238.99 1028.47,159.61 1355.18,-234.41l1618.41 1365.62c544.4,400.15 1119.97,652.35 1757.73,609.12l591.71 -69.61c221.78,-36.5 371.24,-151.36 468.69,-322.54 141.53,-248.63 111.09,-553.79 157.82,-1034.92 76.18,-2564.82 -227.26,-5319.42 -1050.25,-8333.85 316.27,-1625.24 236.72,-3250.48 -284.74,-4875.71 -562.95,-1185.89 -1388.2,-1897.59 -2589.77,-1929.08l-569.47 -257.77c-660.51,-357.22 -1614.72,20.51 -2132.79,481.73 -477.12,-325.74 -775.26,-718.61 -1002.75,-1137.97l-1485.26 -3354.93c-1076.49,-2982.65 -3500.6,-4689.47 -6515.86,-3171.92 -680.55,392.51 -1009.48,1001.39 -865.14,1901.52 -305.75,326.57 -516.89,652.36 -601.2,1052.75 -133.81,-56.02 -105,-259.21 -376.11,-182.84 -278.96,78.58 -480.57,1082.37 -489.56,1332.36 133.91,542.17 -408.49,1520.18 491.68,1674.95 -185.24,951.51 -246.57,1803.88 -162.4,2539.85 -133.3,694.71 -339.57,1358.16 -613.15,1992.76 -457.82,360.95 -978.4,684.24 -1543.12,981.05l-281.1 -53.85c-1153.87,805.41 -2548.33,1057.61 -3639.82,1837.58 -1095.32,1154.73 -1248.61,4476.15 -1872.91,6714.22l-505.21 2452.98 1229.14 460.92 614.57 522.39 -583.85 3165.03 -1276.65 10080.85c-3.61,1905.14 -768.34,3073.35 -953.17,4628.14 68.97,435.03 196.16,845.13 294.24,1267.69l0.02 0.9 -22018.83 0 0 -45155.6zm26527.26 45155.6l-2216.6 0 -327.54 -632.22 -73.41 -690.52 386.82 -1587.28c241.4,-641.51 211.08,-1283.03 58.72,-1924.54l0 -723.44 1921.25 -6265.35 597.12 1030.02c-908.77,4257.23 -1527.38,6176.61 -351.87,10774.84l5.51 18.49z"/>
 </g>
</svg>
